<svg width="18" height="21" viewBox="0 0 18 21" fill="none" xmlns="http://www.w3.org/2000/svg">
<path d="M9.00096 0C10.5368 0 11.8017 1.15431 11.9785 2.64258C14.4815 3.77712 16.2236 6.2958 16.2236 9.22266V14.2402L17.8935 17.5498C18.2291 18.2149 17.746 19 17.001 19H11.8271C11.415 20.1646 10.3068 21 9.00096 21C7.69532 20.9999 6.5879 20.1645 6.17576 19H1.00096C0.256252 18.9998 -0.226894 18.2147 0.108381 17.5498L1.77928 14.2402V9.22266C1.77928 6.29626 3.52022 3.77738 6.02244 2.64258C6.19913 1.15432 7.4652 0.000163865 9.00096 0ZM9.00096 4C6.11696 4.00018 3.77928 6.33861 3.77928 9.22266V14.4775C3.77928 14.6341 3.74239 14.789 3.67186 14.9287L2.62596 17H15.376L14.331 14.9287C14.2605 14.789 14.2236 14.6341 14.2236 14.4775V9.22266C14.2236 6.3385 11.8851 4 9.00096 4Z" fill="#92929D"/>
</svg>
