<svg width="24" height="24" viewBox="0 0 24 24" fill="none" xmlns="http://www.w3.org/2000/svg">
<path d="M11.0506 2.17609C11.4702 1.94124 11.9806 1.94136 12.4002 2.17609L20.7371 6.84308C21.596 7.32385 21.6785 8.49018 20.9891 9.10675V16.9193C21.8922 17.8859 22.3786 18.7067 22.3787 19.4427C22.3786 20.7313 21.3412 21.7757 20.0623 21.7757C18.7836 21.7755 17.747 20.7311 17.7469 19.4427C17.7471 18.7066 18.2333 17.886 19.1366 16.9193V10.1849L18.6727 10.4446V15.637C18.6727 15.9777 18.5495 16.3072 18.326 16.5628C16.9953 18.0849 14.7824 18.8001 11.7254 18.8001C8.66845 18.8001 6.45553 18.0849 5.12484 16.5628C4.90138 16.3072 4.77818 15.9777 4.77816 15.637V10.4446L2.71469 9.29035C1.76177 8.75694 1.76177 7.37649 2.71469 6.84308L11.0506 2.17609ZM20.0623 18.6839C19.958 18.8155 19.8695 18.9394 19.7967 19.053C19.6563 19.2725 19.6001 19.4175 19.5995 19.4427C19.5996 19.7002 19.8068 19.9093 20.0623 19.9095C20.3181 19.9095 20.5261 19.7003 20.5262 19.4427C20.5256 19.4175 20.4694 19.2725 20.3289 19.053C20.2561 18.9393 20.1668 18.8156 20.0623 18.6839ZM12.8504 13.8597C12.5047 14.0532 12.1177 14.1537 11.7254 14.1536C11.3335 14.1535 10.9468 14.053 10.6014 13.8597L6.6307 11.638V15.4534C7.57339 16.422 9.25395 16.9329 11.7254 16.9329C14.197 16.9329 15.8775 16.422 16.8202 15.4534V11.638L12.8504 13.8597ZM4.34262 8.06672L11.7254 12.1995L19.1092 8.06672L11.7254 3.9339L4.34262 8.06672Z" fill="#E05555"/>
</svg>
